<svg width="128" height="128" xmlns="http://www.w3.org/2000/svg">

 <g>
  <title>background</title>
  <rect fill="none" id="canvas_background" height="402" width="582" y="-1" x="-1"/>
 </g>
 <g>
  <title>Layer 1</title>
  <path id="svg_2" fill="#7f003f" d="m64,40.7c6.244,0 11.323,-5.08 11.323,-11.322c0,-6.243 -5.079,-11.324 -11.323,-11.324s-11.323,5.08 -11.323,11.323c0,6.242 5.079,11.323 11.323,11.323zm0,-20.646c5.141,0 9.323,4.183 9.323,9.323c0,5.14 -4.183,9.323 -9.323,9.323c-5.141,0 -9.323,-4.183 -9.323,-9.322c0,-5.141 4.182,-9.324 9.323,-9.324z"/>
  <path id="svg_3" fill="#7f003f" d="m50.818,53.883c0,-6.244 -5.08,-11.323 -11.323,-11.323c-6.243,0 -11.323,5.08 -11.323,11.323s5.08,11.322 11.323,11.322c6.243,0 11.323,-5.079 11.323,-11.322zm-11.323,9.322c-5.141,0 -9.323,-4.183 -9.323,-9.322c0,-5.141 4.183,-9.323 9.323,-9.323c5.14,0 9.323,4.183 9.323,9.323c0,5.139 -4.182,9.322 -9.323,9.322z"/>
  <path id="svg_4" fill="#7f003f" d="m88.505,42.559c-6.243,0 -11.323,5.08 -11.323,11.323c0,6.242 5.08,11.322 11.323,11.322s11.323,-5.08 11.323,-11.322c0,-6.243 -5.08,-11.323 -11.323,-11.323zm0,20.646c-5.142,0 -9.323,-4.183 -9.323,-9.322c0,-5.141 4.184,-9.323 9.323,-9.323s9.323,4.183 9.323,9.323c0,5.139 -4.182,9.322 -9.323,9.322z"/>
  <path id="svg_5" fill="#7f003f" d="m68.926,88.566c3.779,-1.837 6.397,-5.703 6.397,-10.181c0,-6.242 -5.079,-11.322 -11.323,-11.322s-11.323,5.08 -11.323,11.322c0,4.478 2.618,8.344 6.397,10.181c-8.095,2.421 -14.079,10.628 -14.079,20.38c0,0.553 0.448,1 1,1c0.552,0 1,-0.447 1,-1c0,-10.545 7.628,-19.125 17.005,-19.125s17.005,8.58 17.005,19.125c0,0.553 0.448,1 1,1s1,-0.447 1,-1c0,-9.752 -5.984,-17.959 -14.079,-20.38zm-14.249,-10.18c0,-5.141 4.183,-9.322 9.323,-9.322c5.141,0 9.323,4.183 9.323,9.322c0,5.141 -4.183,9.324 -9.323,9.324c-5.141,0 -9.323,-4.183 -9.323,-9.324z"/>
 </g>
</svg>