<svg width="128" height="128" xmlns="http://www.w3.org/2000/svg">

 <g>
  <title>background</title>
  <rect fill="none" id="canvas_background" height="402" width="582" y="-1" x="-1"/>
 </g>
 <g>
  <title>Layer 1</title>
  <path id="svg_2" fill="#7f003f" d="m63.999,46.284c22.271,0 45.938,-4.101 45.938,-11.7c0,-7.6 -23.668,-11.7 -45.938,-11.7c-22.27,0 -45.938,4.101 -45.938,11.7c0,7.599 23.668,11.7 45.938,11.7zm0,-21.4c25.896,0 43.938,5.112 43.938,9.7c0,4.588 -18.045,9.7 -43.938,9.7s-43.938,-5.112 -43.938,-9.7c0,-4.588 18.044,-9.7 43.938,-9.7z"/>
  <path id="svg_3" fill="#7f003f" d="m108.939,44.284c-0.554,0 -1,0.448 -1,1l0,8.132c0,4.587 -18.045,9.699 -43.939,9.699c-25.894,0 -43.938,-5.112 -43.938,-9.699l0,-8.132c0,-0.552 -0.447,-1 -1,-1c-0.554,0 -1,0.448 -1,1l0,8.132c0,7.599 23.669,11.699 45.938,11.699s45.939,-4.1 45.939,-11.699l0,-8.132c0,-0.552 -0.449,-1 -1,-1z"/>
  <path id="svg_4" fill="#7f003f" d="m108.939,64.284c-0.554,0 -1,0.447 -1,1l0,8.133c0,4.588 -18.045,9.699 -43.939,9.699c-25.894,0 -43.938,-5.111 -43.938,-9.699l0,-8.133c0,-0.553 -0.447,-1 -1,-1c-0.554,0 -1,0.447 -1,1l0,8.133c0,7.6 23.669,11.699 45.938,11.699s45.939,-4.1 45.939,-11.699l0,-8.133c0,-0.552 -0.449,-1 -1,-1z"/>
  <path id="svg_5" fill="#7f003f" d="m108.939,84.283c-0.554,0 -1,0.447 -1,1l0,8.133c0,4.588 -18.045,9.699 -43.939,9.699c-25.894,0 -43.938,-5.111 -43.938,-9.699l0,-8.133c0,-0.553 -0.447,-1 -1,-1c-0.554,0 -1,0.447 -1,1l0,8.133c0,7.6 23.669,11.699 45.938,11.699s45.939,-4.1 45.939,-11.699l0,-8.133c0,-0.551 -0.449,-1 -1,-1z"/>
 </g>
</svg>